<svg width="127" height="21" viewBox="0 0 127 21" fill="none" xmlns="http://www.w3.org/2000/svg">
<path d="M4.21706 21L6.00863 13.2355L0 8.01316L7.938 7.32237L11.025 0L14.112 7.32237L22.05 8.01316L16.0414 13.2355L17.8329 21L11.025 16.8829L4.21706 21Z" fill="#FFC567"/>
<path d="M30.3368 21L32.1284 13.2355L26.1198 8.01316L34.0578 7.32237L37.1448 0L40.2318 7.32237L48.1698 8.01316L42.1611 13.2355L43.9527 21L37.1448 16.8829L30.3368 21Z" fill="#FFC567"/>
<path d="M56.4566 21L58.2482 13.2355L52.2396 8.01316L60.1776 7.32237L63.2646 0L66.3516 7.32237L74.2896 8.01316L68.281 13.2355L70.0725 21L63.2646 16.8829L56.4566 21Z" fill="#FFC567"/>
<path d="M82.5764 21L84.368 13.2355L78.3593 8.01316L86.2973 7.32237L89.3843 0L92.4713 7.32237L100.409 8.01316L94.4007 13.2355L96.1923 21L89.3843 16.8829L82.5764 21Z" fill="#FFC567"/>
<path d="M108.696 21L110.488 13.2355L104.479 8.01316L112.417 7.32237L115.504 0L118.591 7.32237L126.529 8.01316L120.52 13.2355L122.312 21L115.504 16.8829L108.696 21Z" fill="#FFC567"/>
</svg>
